<svg width="18" height="18" viewBox="0 0 18 18" fill="none" xmlns="http://www.w3.org/2000/svg">
<path d="M8.99997 10.1425C10.5779 10.1425 11.8571 8.86332 11.8571 7.28537C11.8571 5.70741 10.5779 4.42822 8.99997 4.42822C7.42201 4.42822 6.14282 5.70741 6.14282 7.28537C6.14282 8.86332 7.42201 10.1425 8.99997 10.1425Z" stroke="#EDEDFF" stroke-width="1.5" stroke-linecap="round" stroke-linejoin="round"/>
<path d="M4.12 14.5997C4.62999 13.7626 5.34675 13.0707 6.20137 12.5906C7.056 12.1106 8.01976 11.8584 9 11.8584C9.98023 11.8584 10.944 12.1106 11.7986 12.5906C12.6532 13.0707 13.37 13.7626 13.88 14.5997" stroke="#EDEDFF" stroke-width="1.5" stroke-linecap="round" stroke-linejoin="round"/>
<path d="M8.99998 16.4284C13.1027 16.4284 16.4286 13.1025 16.4286 8.99986C16.4286 4.89717 13.1027 1.57129 8.99998 1.57129C4.8973 1.57129 1.57141 4.89717 1.57141 8.99986C1.57141 13.1025 4.8973 16.4284 8.99998 16.4284Z" stroke="#EDEDFF" stroke-width="1.5" stroke-linecap="round" stroke-linejoin="round"/>
</svg>
